# xmcd CD database file generated by Grip 3.0.5
# 
# Track frame offsets:
#       150
#       13859
#       22800
#       34088
#       46083
#       54756
#       66738
#       80732
#       90505
#       104807
#       117366
#       124952
#       137630
#       150815
#       160505
# 
# Disc length: 2329 seconds
# 
# Revision: 1
# Processed by: cddbd v1.5PL3 Copyright (c) Steve Scherf et al.
# Submitted via: Grip 3.0.5
# 
DISCID=ba09170f
DTITLE=Paul Ansell's Nuber Nine - Blue Grooves Feat His Very Special Guests!
DYEAR=2002
DGENRE=Rock
TTITLE0=Paul Ansell And The Big Town Playboys - I Got A Feeling
TTITLE1=Paul Ansell And The Big Town Playboys - 30 Days
TTITLE2=Paul Ansell And The Big Town Playboys - I Go Crazy
TTITLE3=Paul Ansell And The Big Town Playboys - Wanna Do More
TTITLE4=Paul Ansell And The Big Town Playboys - Lover Please
TTITLE5=Paul Ansell And No. 9 - My Country Cousin
TTITLE6=Paul Ansell And The Big Town Playboys - What Is This Feeling
TTITLE7=Paul Ansell And The Big Town Playboys - I'm Mad At You
TTITLE8=Paul Ansell And The Big Town Playboys - I'll Never Let You Go
TTITLE9=Paul Ansell And The Big Town Playboys - I'll Never Find Another You
TTITLE10=Paul Ansell And No. 9 - Must Be Catchin'
TTITLE11=Paul Ansell And No. 9 - Love Letters
TTITLE12=Paul Ansell And The Big Town Playboys - Done Got Over It
TTITLE13=Paul Ansell And The Big Town Playboys - Too Late Brother
TTITLE14=Paul Ansell And The Big Town Playboys - Feel Like Going Home
EXTD=
EXTT0=
EXTT1=
EXTT2=
EXTT3=
EXTT4=
EXTT5=
EXTT6=
EXTT7=
EXTT8=
EXTT9=
EXTT10=
EXTT11=
EXTT12=
EXTT13=
EXTT14=
PLAYORDER=
